# xmcd CD database file
#
# Track frame offsets:
#	150
#	18930
#	51002
#	74095
#	91535
#	114202
#	149472
#	168802
#	187522
#	203042
#	222932
#	262082
#	280660
#
# Disc length: 4039 seconds
#
# Revision: 0
# Processed by: cddbd v1.5.2PL0 Copyright (c) Steve Scherf et al.
# Submitted via: CDex 1.70beta1
#
DISCID=ad0fc50d
DTITLE=tv-jazz - TV-JAZZ２
DYEAR=1900
DGENRE=Jazz
TTITLE0=ベース、ベース、ベース、ベース、ベース＆ベース
TTITLE1=テイク・ファイブ
TTITLE2=クレオパトラの夢
TTITLE3=セイント・トーマス
TTITLE4=アズ・ﾀｲﾑ・ゴーズ・バイ
TTITLE5=ビギン・ザ・ビギン
TTITLE6=ウォーター・メロンマン
TTITLE7=星に願いを
TTITLE8=スィート・ジョージア・ブラウン
TTITLE9=ハロー・ドーリー
TTITLE10=ビッグ・アップル・ジャム
TTITLE11=アイ・ガット・リズム
TTITLE12=Ｇ線上のアリア
EXTD=
EXTT0=
EXTT1=
EXTT2=
EXTT3=
EXTT4=
EXTT5=
EXTT6=
EXTT7=
EXTT8=
EXTT9=
EXTT10=
EXTT11=
EXTT12=
PLAYORDER=
